# xmcd CD database file
#
# Track frame offsets:
#	150
#	14539
#	36005
#	49474
#	75392
#	89030
#	114087
#	127558
#	158536
#	172108
#	185919
#	199767
#	223594
#	237254
#	253830
#	269384
#	284376
#	302751
#	316420
#	335841
#
# Disc length: 4648 seconds
#
# Revision: 1
# Processed by: cddbd v1.5.2PL0 Copyright (c) Steve Scherf et al.
# Submitted via: CDex 1.70beta2
#
DISCID=21122614
DTITLE=Various Artist - 100 Hits Of The 70's Cd1
DYEAR=2005
DGENRE=70's
TTITLE0=Tony Christie - (Is This The Way To) Amarillo
TTITLE1=Golden Earring - Another 45 Miles
TTITLE2=Smokey Robinson and The Miracles - The Tears Of A Clown
TTITLE3=The Moody Blues - Question
TTITLE4=Dana - All Kinds Of Everything
TTITLE5=Free - All Right Now
TTITLE6=The Suprems - Nathan Jones
TTITLE7=The Temptations - Papa Was A Rolling Stone
TTITLE8=Cats - Be My Day
TTITLE9=Shocking Blue - Never Marry A Railroad Man
TTITLE10=Middle Of The Road - Soley Soley
TTITLE11=James Brown - Get Up I Feel Like Being A Sex Machine (Parts 1 and 2)
TTITLE12=Lobo - Me And You And A Dog Named Boo
TTITLE13=Demis Roussos - Forever And Ever
TTITLE14=Greenfield and Cook - Only Lies
TTITLE15=Family Dogg - Sympathy
TTITLE16=Mouth and Macneal - How Do You Do
TTITLE17=Springwater - I Will Return
TTITLE18=Murrey Head and The Trinidad Singers - Superstar
TTITLE19=Seemon and Marijke - I Saw You
EXTD=YEAR: 2005
EXTT0=
EXTT1=
EXTT2=
EXTT3=
EXTT4=
EXTT5=
EXTT6=
EXTT7=
EXTT8=
EXTT9=
EXTT10=
EXTT11=
EXTT12=
EXTT13=
EXTT14=
EXTT15=
EXTT16=
EXTT17=
EXTT18=
EXTT19=
PLAYORDER=
